# xmcd
#
# Track frame offsets: 
#        150
#        11464
#        24535
#        39690
#        58978
#        73713
#        76528
#        89230
#        111825
#        127633
#        140286
#
# Disc length: 2179 seconds
#
# Revision: 0
# Processed by: cddbd v1.5.2PL0 Copyright (c) Steve Scherf et al.
# Submitted via: ExactAudioCopy v1.0b1
#
DISCID=8c08810b
DTITLE=Amplified Heat - How Do You Like the Sound of That
DYEAR=2007
DGENRE=Acid
TTITLE0=Tough Guy
TTITLE1=Rambler
TTITLE2=Man on the Road
TTITLE3=She Drank That Wine
TTITLE4=What Went Wrong
TTITLE5=S.A.P.O
TTITLE6=Moonshine
TTITLE7=Through and Through
TTITLE8=How Do You Like the Sound of That
TTITLE9=Amplified Boogie
TTITLE10=Sickness
EXTD=
EXTT0=
EXTT1=
EXTT2=
EXTT3=
EXTT4=
EXTT5=
EXTT6=
EXTT7=
EXTT8=
EXTT9=
EXTT10=
PLAYORDER=
